<svg id="로고" xmlns="http://www.w3.org/2000/svg" width="118.888" height="36.775" viewBox="0 0 118.888 36.775">
  <defs>
    <style>
      .cls-1, .cls-2 {
        fill-rule: evenodd;
        fill: #fff;
      }

      .cls-2 {
        fill: #e6001e;
        stroke: #fff;
        stroke-width: 1.6px;
        box-sizing: unset;

      }
    </style>
  </defs>
  <path class="cls-1" d="M173.45,38.878a3.242,3.242,0,0,0,6.482,0V30.089a3.242,3.242,0,0,0-6.482,0l0.015,5.187a2.456,2.456,0,0,1-2.335,1.8c-1.928.072-7.156-2.583-9.067-7.5a3.108,3.108,0,0,0-3.112-2.292,3.188,3.188,0,0,0-3.1,2.257c-1.811,5.855-6.075,7.666-7.41,7.758A1.733,1.733,0,0,0,146.7,38.97a1.555,1.555,0,0,0,1.78,1.492c2.335,0,7.007-1.418,10.529-5.132C162.751,38.934,170.453,42.21,173.45,38.878Zm-60.881-3.086a1.679,1.679,0,0,1-1.694-1.664l0.01-4.477a3.224,3.224,0,0,1,6.447,0v2.839H135.9a7.7,7.7,0,0,0,3.383-.655,1.848,1.848,0,0,1,2.351.772,1.759,1.759,0,0,1-.82,2.21,10.078,10.078,0,0,1-4.914.949h-7.091v1.748l12.847,0.03a1.663,1.663,0,1,1,0,3.325h-31.31a1.663,1.663,0,1,1,0-3.325l12.123-.03V35.766ZM110.21,48c0-3.606,7.007-6.531,15.651-6.531s15.65,2.925,15.65,6.531-7.007,6.53-15.65,6.53S110.21,51.6,110.21,48Zm15.651,3.4c5.038,0,9.123-1.521,9.123-3.4s-4.085-3.4-9.123-3.4-9.124,1.52-9.124,3.4S120.822,51.394,125.861,51.394ZM149.805,43.9a1.678,1.678,0,0,1,1.694-1.662H178.3A1.678,1.678,0,0,1,180,43.9v7.37a1.678,1.678,0,0,1-1.693,1.662H151.5a1.678,1.678,0,0,1-1.694-1.662V43.9Zm6.42,1.584v4.149h17.24V45.485h-17.24Z" transform="translate(-61.112 -22.113)"/>
  <path id="Shape_925_copy" data-name="Shape 925 copy" class="cls-2" d="M61.924,40.5c0-9.71,9.4-17.581,21-17.581s21,7.87,21,17.581-9.4,17.579-21,17.579S61.924,50.208,61.924,40.5Zm21,2.979c3.684,0,6.671-4.221,6.671-9.426s-2.987-9.425-6.671-9.425-6.671,4.22-6.671,9.425S79.242,43.479,82.926,43.479Z" transform="translate(-61.112 -22.113)"/>
</svg>

